<?xml version="1.0" standalone="no"?><!DOCTYPE svg PUBLIC "-//W3C//DTD SVG 1.1//EN" "http://www.w3.org/Graphics/SVG/1.1/DTD/svg11.dtd"><svg t="1694922542122" class="icon" viewBox="0 0 1024 1024" version="1.1" xmlns="http://www.w3.org/2000/svg" p-id="8504" xmlns:xlink="http://www.w3.org/1999/xlink" width="32" height="32"><path d="M334.24 274.72a30.4 30.4 0 0 1 37.12 12.96 32 32 0 0 1 3.36 14.08v421.92A27.52 27.52 0 0 1 347.2 752a27.52 27.52 0 0 1-27.2-28.32V329.12L247.52 352a21.76 21.76 0 0 1-27.2-14.56 21.6 21.6 0 0 1 13.6-26.56zM411.04 618.24v-1.28c0-54.4 39.36-93.12 94.56-112-42.72-19.68-78.72-52.48-78.72-105.6v-1.44c0-70.72 72.8-121.28 156.8-121.28s156.8 50.56 156.8 121.28v1.44c0 53.12-36.16 85.92-78.72 105.6 54.4 20.32 94.4 57.76 94.4 112v1.28c0 78.08-74.72 130.56-172.48 130.56s-172.64-53.76-172.64-130.56zM704 616.96v-1.28c0-51.2-53.12-87.36-120-87.36S464 564.48 464 615.68v1.28c0 46.56 44.64 85.92 120.16 85.92S704 663.52 704 616.96z m-16-215.2V400c0-45.28-45.28-80-104.96-80s-104.96 33.44-104.96 80v1.28c0 49.92 46.56 84 104.96 84S688 451.68 688 401.76z" p-id="8505"></path><path d="M133.856 166.144L166.24 133.76l724.064 724.08-32.352 32.368z" fill="#333333" p-id="8506"></path><path d="M512 48A464 464 0 1 1 48 512 464 464 0 0 1 512 48m0-48a512 512 0 1 0 512 512A512 512 0 0 0 512 0z" p-id="8507"></path></svg>